<svg xmlns="http://www.w3.org/2000/svg" viewBox="0 0 64 64">
  <g transform="translate(-7 1) scale(0.205)">
    <path
      d="m102.249.584028c9.46 0 19.566 3.440102 30.316 10.320372 10.536 6.6652 25.049 18.4907 43.539 35.4763 31.821-26.661 48.795-32.6665 65.135-32.6665 10.536 0 19.566 2.9026 27.091 8.7078 13.863 10.6007 16.175 34.8103 6.463 50.7272-7.74 12.6855-17.846 26.3385-30.316 40.9588 28.381 32.251 44.233 55.457 44.233 71.368 0 11.395-3.548 20.103-10.643 26.123-7.31 6.02-16.448 9.03-27.413 9.03-16.556 0-42.514-12.562-74.55-39.438-18.275 16.125-32.681 27.306-43.216 33.541-10.751 6.235-20.964 9.353-30.639 9.353-12.9004 0-22.8983-4.193-29.9935-12.578-7.3103-8.601-10.9654-18.706-10.9654-30.316 0-7.526 1.075-14.083 3.2251-19.674 2.1501-5.59 6.1277-11.825 11.9329-18.705 5.8052-7.096 15.0506-16.878 27.7359-29.349-12.2553-12.47-21.2856-22.4682-27.0909-29.9934-6.0202-7.7403-10.1053-14.5131-12.2554-20.3183-2.3651-5.8052-3.5476-12.2554-3.5476-19.3507 0-7.5253 1.6125-14.513 4.8376-20.9632 3.2252-6.6653 7.9553-12.0405 14.1906-16.12565 6.2352-4.08515 13.5455-6.127721 21.9307-6.127722z"
      fill="#26ddc7"
      stroke="#132032"
      stroke-width="6"
      stroke-linejoin="round"
    />
  </g>
  <g transform="translate(24 -1) scale(1.8)">
    <path
      d="M19.54 5.08A10.61 10.61 0 0 0 11.91 2a10 10 0 0 0-.05 20 2.58 2.58 0 0 0 2.53-1.89 2.52 2.52 0 0 0-.57-2.28.5.5 0 0 1 .37-.83h1.65A6.15 6.15 0 0 0 22 11.33a8.48 8.48 0 0 0-2.46-6.25z"
      fill="#ffffff"
      stroke="#132032"
      stroke-width="0.9"
      stroke-linejoin="round"
    />
    <circle cx="12" cy="6.5" r="1.5" fill="#ef4444"/>
    <path d="M15.25 7.2a1.5 1.5 0 1 0 2.05.55 1.5 1.5 0 0 0-2.05-.55z" fill="#f59e0b"/>
    <path d="M8.75 7.2a1.5 1.5 0 1 0 .55 2.05 1.5 1.5 0 0 0-.55-2.05z" fill="#3b82f6"/>
    <path d="M6.16 11.26a1.5 1.5 0 1 0 2.08.4 1.49 1.49 0 0 0-2.08-.4z" fill="#22c55e"/>
  </g>
</svg>
